{
	"asset":{
		"version":"2.0",
		"generator":"Created using the official Cinema 4D glTF Exporter 1.000x284978"
	},
	"scenes":[{
		"nodes":[0]
	}],
	"nodes":[{
		"name":"Remesh",
		"children":[1]
	},
	{
		"name":"Polygon_remesh",
		"mesh":0,
		"translation":[16.766225814819337,
		28.106735229492189,
		-27.458602905273439],
		"rotation":[0.0,
		0.0,
		0.0,
		-1.0],
		"scale":[1.0,
		1.0,
		1.0]
	}],
	"meshes":[{
		"name":"Polygon_remesh",
		"primitives":[{
			"attributes":{
				"POSITION":1,
				"NORMAL":2,
				"TEXCOORD_0":3
			},
			"indices":0
		}]
	}],
	"accessors":[{
		"bufferView":0,
		"type":"SCALAR",
		"componentType":5123,
		"count":16422,
		"byteOffset":0,
		"min":[0],
		"max":[2746]
	},
	{
		"bufferView":1,
		"type":"VEC3",
		"componentType":5126,
		"count":2747,
		"byteOffset":0,
		"min":[-183.23822021484376,
		-161.72288513183595,
		-179.1103973388672],
		"max":[258.9620056152344,
		215.3496856689453,
		125.89806365966797]
	},
	{
		"bufferView":1,
		"type":"VEC3",
		"componentType":5126,
		"count":2747,
		"byteOffset":12,
		"min":[-1.0,
		-1.0,
		-1.0],
		"max":[0.9999936819076538,
		1.0,
		1.0]
	},
	{
		"bufferView":1,
		"type":"VEC2",
		"componentType":5126,
		"count":2747,
		"byteOffset":24,
		"min":[0.0015123090706765652,
		0.010193837806582451],
		"max":[0.9995367527008057,
		0.9921679496765137]
	}],
	"bufferViews":[{
		"buffer":0,
		"byteOffset":0,
		"byteLength":32844,
		"target":34963
	},
	{
		"buffer":0,
		"byteOffset":32844,
		"byteLength":87904,
		"target":34962,
		"byteStride":32
	}],
	"buffers":[{
		"uri":"data:application/octet-stream;base64,",
		"byteLength":120748
	}]
}